<?xml version="1.0" encoding="utf-8"?>
<!-- Generator: Adobe Illustrator 19.0.0, SVG Export Plug-In . SVG Version: 6.00 Build 0)  -->
<svg version="1.1" id="Layer_1" xmlns="http://www.w3.org/2000/svg" xmlns:xlink="http://www.w3.org/1999/xlink" x="0px" y="0px"
	 viewBox="-89 -90 612 792" style="enable-background:new -89 -90 612 792;" xml:space="preserve">
<style type="text/css">
	.st0{fill:#FFFFFF;}
	.st1{fill:#FFFFFF;stroke:#000000;stroke-miterlimit:10;}
	.st2{fill:#FFFFFF;stroke:#FFFFFF;stroke-miterlimit:10;}
	.st3{fill:#FFFFFF;stroke:#000000;stroke-width:2.834646e-02;stroke-miterlimit:10;}
</style>
<g id="XMLID_96_">
	<g id="XMLID_97_">
		<path id="XMLID_101_" class="st0" d="M54.1,194.6c-9.9,3-16.9,8.6-21.2,16.8c-1.9,3.6-2.8,6.9-2.9,9.7c0,2.8,0.2,5.1,0.8,6.8
			c2.7-0.3,5.5,0,8.2,0.8c2.7,0.8,5.3,1.9,7.8,3.2c2.5,1.3,4.9,3.1,7.1,5.4c2.2,2.3,4,5,5.3,8.1s1.9,6.6,1.9,10.4
			c0,3.9-1.1,8-3.3,12.3s-4.9,7.6-8.1,9.8c-3.2,2.2-6.5,3.7-10,4.3c-3.5,0.6-7,0.6-10.5-0.1s-6.8-1.8-9.7-3.3
			c-8.6-4.4-14.1-11.7-16.6-21.9c-2.5-10.2-0.4-21.7,6.3-34.6c4.6-8.8,10.2-15.8,17-20.9s13.9-9,21.3-11.7s15-4.6,22.7-5.7
			c7.7-1,21.1-2,21.1-2l0.1,5C76.5,189.1,64,191.6,54.1,194.6z"/>
		<path id="XMLID_98_" class="st0" d="M19.2,279.6c-8.8-4.5-14.5-12.1-17-22.5c-2.5-10.3-0.4-22.2,6.4-35.2
			c4.6-8.9,10.4-16,17.3-21.2c6.8-5.1,14.1-9.1,21.6-11.9s15.2-4.7,22.9-5.7c7.6-1,21.1-2,21.2-2l0.9-0.1l0.1,6.7l-0.8,0.1
			c-15,1.9-27.5,4.5-37.3,7.5l0,0c-9.6,3-16.6,8.5-20.6,16.4c-1.8,3.5-2.7,6.6-2.8,9.3c0,2.4,0.1,4.4,0.5,5.9
			c2.6-0.2,5.2,0.1,7.8,0.9c2.8,0.9,5.4,1.9,8,3.2c2.5,1.3,5,3.2,7.3,5.6s4.1,5.2,5.4,8.4c1.3,3.2,2,6.8,2,10.8s-1.2,8.3-3.4,12.7
			c-2.3,4.4-5.1,7.8-8.3,10.1c-3.3,2.3-6.7,3.8-10.3,4.4c-3.6,0.7-7.2,0.6-10.8-0.1C25.5,282.3,22.2,281.2,19.2,279.6z M90.6,183
			c-3.2,0.2-13.7,1-20.2,1.9c-7.6,1-15.2,2.9-22.5,5.6s-14.4,6.6-21.1,11.6c-6.6,5-12.3,11.9-16.8,20.6c-6.5,12.6-8.6,24.1-6.2,34
			s7.8,17.1,16.2,21.4c2.9,1.5,6,2.6,9.5,3.2c3.4,0.7,6.8,0.7,10.2,0.1c3.3-0.6,6.6-2,9.6-4.2c3-2.1,5.7-5.3,7.8-9.5
			c2.1-4.1,3.2-8.1,3.2-11.9c0-3.7-0.6-7.1-1.8-10.1s-2.9-5.6-5.1-7.8c-2.2-2.2-4.5-4-6.9-5.2c-2.4-1.3-5-2.3-7.7-3.1
			c-2.6-0.8-5.2-1.1-7.8-0.8l-0.7,0.1l-0.2-0.7c-0.6-1.8-0.8-4.1-0.8-7.1s1-6.3,3-10.1c4.3-8.3,11.6-14.1,21.7-17.2
			c9.7-3,22.1-5.5,36.8-7.4L90.6,183z"/>
	</g>
</g>
<path id="XMLID_95_" class="st1" d="M66,180.1"/>
<path id="XMLID_94_" class="st1" d="M257.6,556"/>
<polyline id="XMLID_93_" class="st2" points="301.5,181.8 301.5,238.1 57.3,557.1 1.1,557.1 301.5,181.8 "/>
<g id="XMLID_86_">
	<g id="XMLID_87_">
		<path id="XMLID_91_" class="st0" d="M249.1,543.7c9.8-3.2,16.8-8.9,20.9-17.1c1.8-3.6,2.7-6.9,2.7-9.7s-0.3-5.1-0.9-6.8
			c-2.7,0.3-5.5,0.1-8.2-0.7s-5.4-1.8-7.9-3.1c-2.5-1.2-4.9-3-7.2-5.3c-2.3-2.3-4.1-4.9-5.4-8s-2-6.5-2.1-10.4s1-8,3.1-12.3
			c2.2-4.3,4.8-7.6,7.9-9.9c3.1-2.3,6.4-3.8,9.9-4.5s7-0.7,10.5-0.1c3.5,0.6,6.8,1.7,9.7,3.1c8.7,4.3,14.3,11.5,17,21.6
			c2.6,10.1,0.7,21.7-5.7,34.7c-4.4,8.9-10,15.9-16.7,21.1c-6.7,5.2-13.8,9.2-21.1,12.1c-7.4,2.9-14.9,4.9-22.6,6
			c-7.7,1.2-21.1,2.3-21.1,2.3l-0.2-5C226.8,549.6,239.3,546.9,249.1,543.7z"/>
		<path id="XMLID_88_" class="st0" d="M282.7,458.1c8.9,4.4,14.7,11.9,17.4,22.2c2.7,10.3,0.7,22.2-5.8,35.3
			c-4.5,9-10.2,16.2-16.9,21.4c-6.7,5.2-13.9,9.3-21.4,12.2c-7.4,2.9-15.1,4.9-22.8,6.1c-7.6,1.1-21,2.3-21.2,2.3l-0.9,0.1l-0.2-6.7
			l0.8-0.1c14.9-2.2,27.4-4.9,37.1-8.1l0,0c9.6-3.1,16.4-8.7,20.4-16.7c1.7-3.5,2.6-6.7,2.6-9.4c0-2.4-0.2-4.4-0.6-5.9
			c-2.6,0.2-5.2,0-7.8-0.8c-2.8-0.8-5.5-1.9-8-3.1c-2.6-1.3-5.1-3.1-7.4-5.4c-2.3-2.3-4.2-5.1-5.6-8.3s-2.1-6.8-2.1-10.7
			c-0.1-4,1-8.3,3.2-12.7s5-7.9,8.2-10.2c3.2-2.4,6.7-3.9,10.2-4.6c3.6-0.7,7.2-0.8,10.8-0.1C276.3,455.6,279.6,456.6,282.7,458.1z
			 M212.8,555.9c3.2-0.3,13.7-1.3,20.1-2.2c7.6-1.1,15.1-3.2,22.4-6s14.3-6.9,20.9-12s12.1-12.1,16.4-20.8
			c6.3-12.7,8.2-24.2,5.7-34.1c-2.6-9.8-8.1-16.9-16.5-21.1c-2.9-1.4-6.1-2.5-9.5-3.1s-6.8-0.6-10.2,0.1c-3.3,0.7-6.5,2.1-9.6,4.3
			c-3,2.2-5.6,5.4-7.7,9.6c-2.1,4.2-3.1,8.2-3,11.9s0.7,7.1,2,10.1s3,5.6,5.2,7.7c2.2,2.2,4.6,3.9,7,5.1c2.4,1.2,5,2.2,7.7,3
			c2.6,0.8,5.3,1,7.8,0.6l0.7-0.1l0.2,0.7c0.6,1.8,0.9,4.1,0.9,7.1s-0.9,6.4-2.8,10.1c-4.2,8.4-11.4,14.3-21.4,17.6
			c-9.7,3.2-22,5.9-36.7,8L212.8,555.9z"/>
	</g>
</g>
<g id="XMLID_83_">
	<line id="XMLID_85_" class="st3" x1="92.3" y1="182.2" x2="101.5" y2="182.2"/>
	<rect id="XMLID_84_" x="92.3" y="181.2" class="st3" width="9.2" height="2"/>
</g>
<g id="XMLID_78_">
	<path id="XMLID_82_" class="st0" d="M92.4,187.6c0,0,6.3-4.9,8.6-4.9c2.4-0.1-8.7,0-8.7,0L92.4,187.6z"/>
	<path id="XMLID_79_" class="st0" d="M92.3,187.9l-0.1-5.4h0.1c0,0,2.3,0,4.5,0c2.7,0,3.9,0,4.3,0c0.1,0,0.2,0,0.2,0l0,0
		c0.2,0,0.2,0.1,0.2,0.1c0,0.2-0.1,0.2-0.5,0.2c-2.3,0.1-8.5,4.9-8.6,4.9L92.3,187.9z M92.5,182.9l0.1,4.5c1-0.8,4.8-3.6,7.3-4.5
		C97.8,182.8,94.3,182.8,92.5,182.9z"/>
</g>
<g id="XMLID_75_">
	<line id="XMLID_77_" class="st0" x1="211.8" y1="556.8" x2="201.6" y2="556.8"/>
	<rect id="XMLID_76_" x="201.6" y="555.9" class="st0" width="10.2" height="1.8"/>
</g>
<g id="XMLID_55_">
	<path id="XMLID_73_" class="st0" d="M210.8,551.3c0,0-6.4,4.9-8.8,4.9s8.9,0,8.9,0L210.8,551.3z"/>
	<path id="XMLID_70_" class="st0" d="M203.6,556.4c-0.9,0-1.4,0-1.7,0c-0.1,0-0.2,0-0.2,0l0,0c-0.2,0-0.2-0.1-0.2-0.1
		c0-0.2,0.1-0.2,0.5-0.2c2.4-0.1,8.6-4.9,8.7-4.9l0.2-0.2l0.1,5.4h-0.1c0,0-2.3,0-4.6,0C205.2,556.4,204.3,556.4,203.6,556.4z
		 M210.7,551.6c-1,0.8-4.9,3.6-7.4,4.5c2.1,0,5.7,0,7.5,0L210.7,551.6z"/>
</g>
</svg>
