<?xml version="1.0" encoding="utf-8"?>
<!-- Generator: Adobe Illustrator 19.0.0, SVG Export Plug-In . SVG Version: 6.00 Build 0)  -->
<svg version="1.1" xmlns="http://www.w3.org/2000/svg" xmlns:xlink="http://www.w3.org/1999/xlink" x="0px" y="0px"
	 viewBox="0 0 792 612" style="enable-background:new 0 0 792 612;" xml:space="preserve">
<style type="text/css">
	.st0{stroke:#000000;stroke-miterlimit:10;}
	.st1{stroke:#000000;stroke-width:0.9921;stroke-miterlimit:10;}
	.st2{stroke:#000000;stroke-width:1.1339;stroke-miterlimit:10;}
	.st3{stroke:#000000;stroke-width:0.8504;stroke-miterlimit:10;}
</style>
<g id="Layer_1">
	<g id="XMLID_46_">
		<g id="XMLID_42_">
			<path id="XMLID_59_" d="M89.7,170.8c-5.9,1.8-10.1,5.2-12.6,10c-1.1,2.2-1.7,4.1-1.7,5.8c0,1.7,0.1,3.1,0.5,4.1
				c1.6-0.2,3.3,0,4.9,0.5c1.6,0.5,3.2,1.1,4.7,1.9c1.5,0.8,2.9,1.8,4.2,3.2c1.3,1.4,2.4,3,3.1,4.8c0.8,1.8,1.1,3.9,1.1,6.2
				c0,2.3-0.7,4.8-2,7.3c-1.3,2.6-2.9,4.5-4.8,5.9c-1.9,1.3-3.9,2.2-6,2.6c-2.1,0.4-4.2,0.4-6.3,0c-2.1-0.4-4-1.1-5.8-2
				c-5.1-2.7-8.4-7-9.9-13.1c-1.5-6.1-0.2-13,3.8-20.7c2.7-5.3,6.1-9.4,10.2-12.5c4.1-3,8.3-5.4,12.7-7c4.4-1.6,9-2.8,13.6-3.4
				c4.6-0.6,12.6-1.2,12.6-1.2l0,3C103.1,167.5,95.6,169,89.7,170.8z"/>
			<path id="XMLID_61_" d="M68.8,221.6c-5.2-2.7-8.7-7.2-10.2-13.4c-1.5-6.2-0.2-13.2,3.8-21c2.7-5.3,6.2-9.6,10.3-12.6
				c4.1-3,8.4-5.4,12.9-7.1c4.5-1.6,9.1-2.8,13.7-3.4c4.6-0.6,12.6-1.2,12.7-1.2l0.5,0l0.1,4l-0.5,0.1c-8.9,1.2-16.4,2.7-22.3,4.5
				l0,0c-5.7,1.8-9.9,5.1-12.3,9.8c-1.1,2.1-1.6,4-1.7,5.6c0,1.4,0.1,2.6,0.3,3.5c1.5-0.1,3.1,0.1,4.7,0.5c1.7,0.5,3.3,1.2,4.8,1.9
				c1.5,0.8,3,1.9,4.4,3.3c1.4,1.4,2.5,3.1,3.3,5c0.8,1.9,1.2,4.1,1.2,6.4c0,2.4-0.7,4.9-2,7.6c-1.4,2.6-3,4.7-5,6
				c-1.9,1.4-4,2.3-6.2,2.7c-2.1,0.4-4.3,0.4-6.5,0C72.6,223.2,70.6,222.5,68.8,221.6z M111.5,163.9c-1.9,0.1-8.2,0.6-12,1.1
				c-4.5,0.6-9.1,1.7-13.5,3.4c-4.4,1.6-8.6,4-12.6,6.9c-4,3-7.3,7.1-10,12.3c-3.9,7.6-5.2,14.4-3.7,20.3c1.4,5.9,4.7,10.2,9.7,12.8
				c1.7,0.9,3.6,1.5,5.6,1.9c2,0.4,4.1,0.4,6.1,0c2-0.4,3.9-1.2,5.7-2.5c1.8-1.3,3.4-3.2,4.7-5.7s1.9-4.9,1.9-7.1
				c0-2.2-0.4-4.3-1.1-6c-0.7-1.8-1.8-3.4-3-4.7c-1.3-1.3-2.7-2.4-4.1-3.1c-1.4-0.7-3-1.4-4.6-1.9c-1.6-0.5-3.1-0.6-4.7-0.5l-0.4,0
				l-0.1-0.4c-0.3-1.1-0.5-2.5-0.5-4.3c0-1.8,0.6-3.8,1.8-6c2.6-5,6.9-8.4,12.9-10.3c5.8-1.8,13.2-3.3,22-4.4L111.5,163.9z"/>
		</g>
	</g>
	<path id="XMLID_54_" class="st0" d="M96.8,162.8"/>
	<path id="XMLID_68_" class="st0" d="M211.3,387.3"/>
	<polyline id="XMLID_19_" class="st1" points="237.5,163.8 237.5,197.4 91.7,388 58.1,388 237.5,163.8 	"/>
	<g id="XMLID_20_">
		<g id="XMLID_21_">
			<path id="XMLID_37_" class="st0" d="M206.2,379.6c5.9-1.9,10-5.3,12.5-10.2c1.1-2.2,1.6-4.1,1.6-5.8c0-1.7-0.2-3.1-0.5-4.1
				c-1.6,0.2-3.3,0.1-4.9-0.4c-1.6-0.5-3.2-1.1-4.7-1.8c-1.5-0.7-2.9-1.8-4.3-3.2c-1.4-1.4-2.4-3-3.2-4.8c-0.8-1.8-1.2-3.9-1.2-6.2
				c0-2.3,0.6-4.8,1.9-7.3c1.3-2.6,2.9-4.6,4.7-5.9c1.9-1.4,3.8-2.3,5.9-2.7c2.1-0.4,4.2-0.4,6.3-0.1c2.1,0.4,4.1,1,5.8,1.9
				c5.2,2.6,8.6,6.9,10.1,12.9c1.6,6,0.4,13-3.4,20.7c-2.6,5.3-6,9.5-10,12.6c-4,3.1-8.2,5.5-12.6,7.2c-4.4,1.7-8.9,2.9-13.5,3.6
				c-4.6,0.7-12.6,1.4-12.6,1.4l-0.1-3C192.9,383.1,200.3,381.5,206.2,379.6z"/>
			<path id="XMLID_22_" class="st0" d="M226.2,328.5c5.3,2.6,8.8,7.1,10.4,13.3c1.6,6.1,0.4,13.2-3.5,21.1
				c-2.7,5.4-6.1,9.7-10.1,12.8c-4,3.1-8.3,5.6-12.8,7.3c-4.4,1.7-9,2.9-13.6,3.6c-4.5,0.7-12.6,1.4-12.6,1.4l-0.5,0l-0.1-4l0.5-0.1
				c8.9-1.3,16.4-2.9,22.2-4.8l0,0c5.7-1.9,9.8-5.2,12.2-10c1-2.1,1.6-4,1.6-5.6c0-1.4-0.1-2.6-0.4-3.5c-1.5,0.1-3.1,0-4.7-0.5
				c-1.7-0.5-3.3-1.1-4.8-1.9c-1.5-0.8-3-1.9-4.4-3.2c-1.4-1.4-2.5-3.1-3.3-4.9c-0.8-1.9-1.2-4.1-1.3-6.4c0-2.4,0.6-4.9,1.9-7.6
				s3-4.7,4.9-6.1c1.9-1.4,4-2.3,6.1-2.8c2.1-0.4,4.3-0.4,6.5-0.1C222.4,326.9,224.4,327.6,226.2,328.5z M184.5,386.8
				c1.9-0.2,8.2-0.8,12-1.3c4.5-0.7,9-1.9,13.4-3.6c4.4-1.7,8.6-4.1,12.5-7.1c3.9-3,7.2-7.2,9.8-12.4c3.8-7.6,4.9-14.5,3.4-20.4
				c-1.5-5.9-4.8-10.1-9.9-12.6c-1.7-0.9-3.6-1.5-5.7-1.8c-2-0.4-4.1-0.3-6.1,0.1c-2,0.4-3.9,1.3-5.7,2.6c-1.8,1.3-3.3,3.2-4.6,5.7
				c-1.2,2.5-1.9,4.9-1.8,7.1c0,2.2,0.4,4.3,1.2,6c0.8,1.8,1.8,3.3,3.1,4.6c1.3,1.3,2.7,2.3,4.2,3.1c1.5,0.7,3,1.3,4.6,1.8
				c1.6,0.4,3.1,0.6,4.7,0.4l0.4-0.1l0.1,0.4c0.4,1.1,0.5,2.5,0.5,4.2c0,1.8-0.6,3.8-1.7,6c-2.5,5-6.8,8.5-12.8,10.5
				c-5.8,1.9-13.1,3.5-21.9,4.8L184.5,386.8z"/>
		</g>
	</g>
	<g id="XMLID_50_">
		<line id="XMLID_67_" class="st2" x1="112.5" y1="164" x2="237.5" y2="164"/>
		<rect id="XMLID_69_" x="112.5" y="163.3" class="st2" width="125" height="1.2"/>
	</g>
	<g id="XMLID_51_">
		<path id="XMLID_58_" d="M112.6,166.7c0,0,3.8-2.4,5.2-2.4c1.5,0-5.3,0-5.3,0L112.6,166.7z"/>
		<path id="XMLID_62_" d="M112.5,166.8l-0.1-2.6l0.1,0c0,0,1.4,0,2.7,0c1.6,0,2.3,0,2.6,0c0.1,0,0.1,0,0.1,0l0,0
			c0.1,0,0.1,0,0.1,0.1c0,0.1,0,0.1-0.3,0.1c-1.4,0-5.2,2.4-5.2,2.4L112.5,166.8z M112.6,164.4l0,2.2c0.6-0.4,2.9-1.8,4.4-2.2
			C115.9,164.4,113.7,164.4,112.6,164.4z"/>
	</g>
	<g id="XMLID_56_">
		<line id="XMLID_53_" class="st3" x1="183.8" y1="387.5" x2="90.7" y2="387.5"/>
		<rect id="XMLID_57_" x="92.5" y="387" class="st3" width="91.3" height="1.1"/>
	</g>
	<g id="XMLID_41_">
		<path id="XMLID_43_" d="M182.9,383.7c0,0-3.8,3.6-5.2,3.7c-1.5,0,5.3,0,5.3,0L182.9,383.7z"/>
		<path id="XMLID_44_" d="M178.6,387.5c-0.6,0-0.9,0-1,0c-0.1,0-0.1,0-0.1,0l0,0c-0.1,0-0.1,0-0.1-0.1c0-0.1,0-0.1,0.3-0.1
			c1.4,0,5.2-3.6,5.2-3.7l0.1-0.1l0.1,4l-0.1,0c0,0-1.4,0-2.7,0C179.5,387.5,179,387.5,178.6,387.5z M182.8,383.9
			c-0.6,0.6-2.9,2.7-4.4,3.4c1.2,0,3.4,0,4.5,0L182.8,383.9z"/>
	</g>
	<g id="XMLID_74_">
		<path id="XMLID_2_" d="M266.5,319.7c0,23.1,4.1,40.1,12.2,50.9c8.1,10.8,18.8,16.2,32,16.2c18.7,0,35.3-2.8,49.8-8.4l0.8,2
			c-14.9,5.8-31.8,8.7-50.5,8.7c-18.7,0-34-5.6-45.8-16.8s-17.6-28.4-17.6-51.8c0-23.3,6.2-41.4,18.5-54.3
			c12.3-12.9,28-19.3,47-19.3c15.3,0,28.2,4.6,38.6,13.7c10.4,9.1,15.7,22.7,15.7,40.6c0,0.9,0,1.9,0,2.8h-99.9
			C266.8,309.1,266.5,314.3,266.5,319.7z M337.9,262c-6.7-8.6-15.4-12.9-26-12.9s-20.1,4.7-28.4,14c-8.3,9.3-13.6,22.2-15.8,38.6
			h80.6C348.1,283.9,344.6,270.6,337.9,262z"/>
		<path id="XMLID_5_" d="M494.9,388c-7.7,0-13.5-1.7-17.5-5c-4-3.4-6.1-6.7-6.3-10.1l-0.3-4.8v-87.9c0-14.7-3.8-24.2-11.5-28.3
			c-3.9-1.9-8.8-2.8-14.6-2.8c-11.9,0-22.7,4.7-32.2,14.1c-9.5,9.4-14.3,17.9-14.3,25.3V388h-19.6V248.1h19.6v31.9
			c3.2-8,9-15.5,17.6-22.5c8.6-7,18-10.5,28.3-10.5c10.3,0,18.6,1,25,2.9c6.4,2,11.1,4.7,14.1,8.3c4.7,5.8,7,13.2,7,22.4v87.6
			c0,5.4,1.1,9.6,3.2,12.5c2.1,2.9,4.3,4.4,6.6,4.6l3.1,0.6h8.7v2.2H494.9z"/>
		<path id="XMLID_7_" d="M532.1,216.7c-2.2-2.2-3.4-5-3.4-8.4s1.1-6.2,3.4-8.5c2.2-2.3,5-3.5,8.4-3.5s6.2,1.2,8.5,3.5
			c2.3,2.3,3.5,5.2,3.5,8.5s-1.2,6.2-3.5,8.4c-2.3,2.2-5.2,3.4-8.5,3.4S534.3,218.9,532.1,216.7z M554.5,388c-7.7,0-13.5-1.7-17.5-5
			c-4-3.4-6.1-6.7-6.3-10.1l-0.3-4.8v-120H550v120c0,5.4,1.1,9.6,3.2,12.5c2.1,2.9,4.2,4.4,6.3,4.6l3.4,0.6h8.7v2.2H554.5z"/>
		<path id="XMLID_10_" d="M703.9,388c-12.7,0-21.4-2.4-26-7.3c-4.3-4.1-6.4-7.6-6.4-10.6v-5.9c-9.1,16.6-23.8,24.9-43.9,24.9
			c-23.5,0-36.8-10.6-40-31.9c-0.4-2.2-0.6-4.5-0.6-6.9c0-2.3,0.4-4.9,1.1-7.7c0.7-2.8,2.9-5.9,6.4-9.2c7.1-6.7,22.7-10.8,46.7-12.3
			c6-0.6,11.5-0.8,16.5-0.8c5,0,9.6,0.2,13.7,0.6v-46.4c-0.4-0.2-0.4-1.1,0-2.7c0.4-1.6,0-3.6-1-6.2c-1-2.5-2.4-5-4.1-7.4
			c-1.7-2.4-4.7-4.5-9-6.3c-4.3-1.8-9.9-2.7-16.8-2.7c-6.9,0-15,1.3-24.2,3.8c-9.2,2.5-16,5-20.3,7.4l-1.1-2
			c16.6-7.6,33.5-11.5,50.6-11.5c19.2,0,31.9,3.5,38.1,10.4c4.8,5.4,7.3,11.1,7.3,17.1v93.7c0,5.4,1.1,9.6,3.2,12.5
			c2.1,2.9,4.3,4.4,6.6,4.6l3.1,0.6h8.7v2.2H703.9z M632,386.8c9.9,0,18.8-3.4,26.7-10.2c7.9-6.8,12.2-13.4,12.7-19.7V323
			c-5-0.4-10.1-0.6-15.2-0.6c-5.1,0-10.2,0.3-15.2,0.8c-14.2,1.7-23.4,4.9-27.7,9.5c-4.3,4.7-6.4,11.1-6.4,19.3c0,1.5,0.1,3.2,0.3,5
			C608.7,377,617,386.8,632,386.8z"/>
	</g>
</g>
<g id="Layer_2">
	<g id="XMLID_1_">
	</g>
	<g id="XMLID_13_">
	</g>
	<g id="XMLID_14_">
	</g>
	<g id="XMLID_15_">
	</g>
	<g id="XMLID_16_">
	</g>
	<g id="XMLID_17_">
	</g>
</g>
</svg>
